<svg viewBox="0 0 271 99" fill="none" xmlns="http://www.w3.org/2000/svg">
    <path d="M65.5281 65.9862V71.9928H56.3507V98.6414H48.785V71.9928H39.6077V65.9862H65.5281Z" fill="#FFFFFF"/>
    <path d="M77.1064 86.561V98.6414H69.5407V65.9862H80.1506C82.5083 65.9862 84.5154 66.2328 86.1718 66.7258C87.8431 67.204 89.201 67.8764 90.2456 68.743C91.3051 69.6096 92.0736 70.6331 92.5511 71.8135C93.0286 72.9939 93.2674 74.2789 93.2674 75.6685C93.2674 76.7293 93.1256 77.7304 92.8421 78.6718C92.5586 79.6131 92.1333 80.4872 91.5662 81.294C91.0141 82.086 90.3277 82.7957 89.5069 83.4232C88.7011 84.0508 87.7685 84.5663 86.709 84.9697C87.2163 85.2237 87.6864 85.5375 88.1192 85.911C88.5668 86.2846 88.9548 86.7403 89.2831 87.2782L96.2221 98.6414H89.3726C88.1042 98.6414 87.194 98.1633 86.6418 97.207L81.225 87.7265C80.9862 87.3081 80.7027 87.0093 80.3744 86.83C80.061 86.6506 79.6133 86.561 79.0314 86.561H77.1064ZM77.1064 81.3389H80.1506C81.1802 81.3389 82.0532 81.2119 82.7694 80.9578C83.5006 80.6889 84.0976 80.3228 84.5601 79.8596C85.0227 79.3964 85.3585 78.8585 85.5674 78.2459C85.7763 77.6184 85.8808 76.946 85.8808 76.2288C85.8808 74.7944 85.4107 73.6737 84.4706 72.8669C83.5454 72.06 82.1054 71.6566 80.1506 71.6566H77.1064V81.3389Z" fill="#FFFFFF"/>
    <path d="M121.204 65.9862V71.8135H107.819V79.4338H118.07V85.0369H107.819V92.8141H121.204V98.6414H100.208V65.9862H121.204Z" fill="#FFFFFF"/>
    <path d="M130.401 65.9862C130.729 65.9862 131.005 66.0012 131.229 66.0311C131.453 66.0609 131.654 66.1207 131.833 66.2104C132.012 66.2851 132.184 66.3971 132.348 66.5465C132.512 66.696 132.699 66.8977 132.908 67.1517L148.397 86.7627C148.337 86.1352 148.293 85.53 148.263 84.9473C148.233 84.3496 148.218 83.7893 148.218 83.2663V65.9862H154.888V98.6414H150.949C150.367 98.6414 149.874 98.5517 149.472 98.3724C149.069 98.1931 148.681 97.8644 148.308 97.3863L132.93 77.9321C132.975 78.4999 133.012 79.0602 133.042 79.6131C133.072 80.151 133.087 80.659 133.087 81.1372V98.6414H126.416V65.9862H130.401Z" fill="#FFFFFF"/>
    <path d="M184.831 65.9862V71.9928H175.654V98.6414H168.088V71.9928H158.911V65.9862H184.831Z" fill="#FFFFFF"/>
    <path d="M197.126 98.6414H189.516V65.9862H197.126V98.6414Z" fill="#FFFFFF"/>
    <path d="M208.063 65.9862C208.392 65.9862 208.668 66.0012 208.891 66.0311C209.115 66.0609 209.317 66.1207 209.496 66.2104C209.675 66.2851 209.847 66.3971 210.011 66.5465C210.175 66.696 210.361 66.8977 210.57 67.1517L226.06 86.7627C226 86.1352 225.955 85.53 225.926 84.9473C225.896 84.3496 225.881 83.7893 225.881 83.2663V65.9862H232.551V98.6414H228.612C228.03 98.6414 227.537 98.5517 227.134 98.3724C226.731 98.1931 226.343 97.8644 225.97 97.3863L210.593 77.9321C210.637 78.4999 210.675 79.0602 210.705 79.6131C210.734 80.151 210.749 80.659 210.749 81.1372V98.6414H204.079V65.9862H208.063Z" fill="#FFFFFF"/>
    <path d="M271 82.3026C271 84.6634 270.59 86.8598 269.769 88.8919C268.963 90.924 267.822 92.6946 266.344 94.2037C264.867 95.6979 263.084 96.8708 260.994 97.7225C258.92 98.5742 256.615 99 254.078 99C251.541 99 249.228 98.5742 247.139 97.7225C245.05 96.8708 243.259 95.6979 241.767 94.2037C240.29 92.6946 239.141 90.924 238.32 88.8919C237.514 86.8598 237.111 84.6634 237.111 82.3026C237.111 79.9418 237.514 77.7454 238.32 75.7133C239.141 73.6812 240.29 71.9181 241.767 70.4239C243.259 68.9297 245.05 67.7568 247.139 66.9051C249.228 66.0535 251.541 65.6276 254.078 65.6276C256.615 65.6276 258.92 66.0609 260.994 66.9276C263.084 67.7792 264.867 68.9522 266.344 70.4463C267.822 71.9405 268.963 73.7036 269.769 75.7357C270.59 77.7678 271 79.9567 271 82.3026ZM263.255 82.3026C263.255 80.6889 263.046 79.2395 262.628 77.9546C262.211 76.6546 261.606 75.5564 260.815 74.6599C260.039 73.7634 259.084 73.0761 257.95 72.5979C256.816 72.1198 255.525 71.8807 254.078 71.8807C252.616 71.8807 251.31 72.1198 250.161 72.5979C249.027 73.0761 248.064 73.7634 247.273 74.6599C246.497 75.5564 245.9 76.6546 245.483 77.9546C245.065 79.2395 244.856 80.6889 244.856 82.3026C244.856 83.9313 245.065 85.3955 245.483 86.6955C245.9 87.9805 246.497 89.0712 247.273 89.9677C248.064 90.8642 249.027 91.5515 250.161 92.0297C251.31 92.4929 252.616 92.7245 254.078 92.7245C255.525 92.7245 256.816 92.4929 257.95 92.0297C259.084 91.5515 260.039 90.8642 260.815 89.9677C261.606 89.0712 262.211 87.9805 262.628 86.6955C263.046 85.3955 263.255 83.9313 263.255 82.3026Z" fill="#FFFFFF"/>
    <path d="M52.6182 50.3445L50.0576 43.3372C49.9315 43.0264 49.8005 42.6573 49.6647 42.23C49.5289 41.8026 49.3931 41.3413 49.2573 40.846C49.1312 41.3413 49.0003 41.8075 48.8645 42.2446C48.7287 42.6719 48.5978 43.0458 48.4717 43.3663L45.9255 50.3445H52.6182ZM59.5292 58.2987H56.5029C56.1635 58.2987 55.887 58.2161 55.6736 58.051C55.4602 57.8762 55.3002 57.6626 55.1935 57.41L53.6222 53.1124H44.9071L43.3357 57.41C43.2581 57.6334 43.1078 57.8374 42.8847 58.0219C42.6616 58.2064 42.3852 58.2987 42.0554 58.2987H39L47.2786 37.2331H51.2652L59.5292 58.2987Z" fill="#FFFFFF"/>
    <path d="M83.428 53.3309C83.6414 53.3309 83.8305 53.4135 83.9954 53.5786L85.5376 55.2539C84.6841 56.3126 83.6317 57.1235 82.3804 57.6868C81.1389 58.2501 79.6451 58.5318 77.8992 58.5318C76.3376 58.5318 74.9311 58.2647 73.6799 57.7305C72.4383 57.1964 71.3762 56.4534 70.4936 55.5016C69.6109 54.5498 68.9319 53.4135 68.4566 52.0926C67.9911 50.7718 67.7583 49.3295 67.7583 47.7659C67.7583 46.1828 68.0105 44.7357 68.5148 43.4246C69.0192 42.1037 69.7273 40.9674 70.6391 40.0156C71.5605 39.0638 72.6566 38.3257 73.9272 37.8012C75.1979 37.2671 76.6043 37 78.1465 37C79.6791 37 81.037 37.2525 82.2204 37.7575C83.4134 38.2626 84.427 38.923 85.2612 39.7388L83.9518 41.5598C83.8742 41.6764 83.7723 41.7784 83.6462 41.8658C83.5298 41.9532 83.3649 41.9969 83.1516 41.9969C83.0061 41.9969 82.8557 41.958 82.7005 41.8803C82.5453 41.7929 82.3756 41.691 82.1913 41.5744C82.007 41.4482 81.7936 41.3122 81.5511 41.1665C81.3086 41.0208 81.0273 40.8897 80.7072 40.7732C80.3872 40.6469 80.0137 40.5449 79.5869 40.4672C79.1699 40.3798 78.6849 40.3361 78.132 40.3361C77.1911 40.3361 76.3279 40.5061 75.5422 40.846C74.7662 41.1762 74.097 41.6618 73.5344 42.3028C72.9718 42.9341 72.5353 43.7111 72.2249 44.6337C71.9146 45.5467 71.7594 46.5907 71.7594 47.7659C71.7594 48.9508 71.9243 50.0045 72.254 50.9272C72.5935 51.8498 73.0494 52.6268 73.6217 53.2581C74.194 53.8894 74.8681 54.375 75.6441 54.7149C76.42 55.0451 77.2542 55.2102 78.1465 55.2102C78.68 55.2102 79.1602 55.1811 79.5869 55.1228C80.0234 55.0646 80.4211 54.9723 80.78 54.846C81.1486 54.7198 81.4929 54.5595 81.813 54.3653C82.1428 54.1613 82.4677 53.9137 82.7878 53.6223C82.8848 53.5349 82.9867 53.4669 83.0934 53.4184C83.2 53.3601 83.3116 53.3309 83.428 53.3309Z" fill="#FFFFFF"/>
    <path d="M99.9163 50.3445L97.3556 43.3372C97.2295 43.0264 97.0986 42.6573 96.9628 42.23C96.827 41.8026 96.6912 41.3413 96.5554 40.846C96.4293 41.3413 96.2984 41.8075 96.1626 42.2446C96.0268 42.6719 95.8958 43.0458 95.7698 43.3663L93.2236 50.3445H99.9163ZM106.827 58.2987H103.801C103.462 58.2987 103.185 58.2161 102.972 58.051C102.758 57.8762 102.598 57.6626 102.492 57.41L100.92 53.1124H92.2051L90.6338 57.41C90.5562 57.6334 90.4059 57.8374 90.1828 58.0219C89.9597 58.2064 89.6832 58.2987 89.3535 58.2987H86.2981L94.5767 37.2331H98.5632L106.827 58.2987Z" fill="#FFFFFF"/>
    <path d="M120.79 41.0645C120.674 41.2685 120.547 41.419 120.412 41.5161C120.286 41.6035 120.126 41.6473 119.932 41.6473C119.728 41.6473 119.505 41.5744 119.262 41.4287C119.029 41.2733 118.748 41.1034 118.418 40.9188C118.089 40.7343 117.701 40.5692 117.254 40.4235C116.818 40.2681 116.299 40.1904 115.698 40.1904C115.154 40.1904 114.679 40.2584 114.272 40.3944C113.864 40.5206 113.52 40.7003 113.239 40.9334C112.967 41.1665 112.764 41.4482 112.628 41.7784C112.492 42.0989 112.424 42.4534 112.424 42.8418C112.424 43.3372 112.56 43.7499 112.831 44.0801C113.113 44.4104 113.481 44.692 113.937 44.9251C114.393 45.1582 114.912 45.367 115.494 45.5515C116.076 45.7361 116.672 45.9352 117.284 46.1488C117.895 46.3528 118.491 46.5956 119.073 46.8772C119.655 47.1492 120.174 47.4988 120.63 47.9261C121.086 48.3438 121.45 48.8585 121.721 49.4704C122.002 50.0822 122.143 50.8252 122.143 51.6993C122.143 52.6511 121.978 53.5446 121.648 54.3799C121.328 55.2054 120.853 55.9289 120.223 56.5505C119.602 57.1624 118.84 57.648 117.938 58.0073C117.036 58.357 116.003 58.5318 114.839 58.5318C114.17 58.5318 113.51 58.4638 112.861 58.3278C112.211 58.2016 111.585 58.017 110.984 57.7742C110.392 57.5314 109.834 57.2401 109.31 56.9002C108.787 56.5602 108.321 56.1815 107.914 55.7638L109.063 53.8845C109.16 53.7486 109.286 53.6369 109.441 53.5495C109.597 53.4523 109.762 53.4038 109.936 53.4038C110.179 53.4038 110.44 53.5058 110.722 53.7097C111.003 53.904 111.338 54.1225 111.726 54.3653C112.114 54.6081 112.565 54.8315 113.079 55.0354C113.603 55.2297 114.228 55.3268 114.956 55.3268C116.071 55.3268 116.934 55.0646 117.545 54.5401C118.157 54.0059 118.462 53.2435 118.462 52.2529C118.462 51.6993 118.321 51.2477 118.04 50.8981C117.769 50.5484 117.405 50.2571 116.949 50.024C116.493 49.7812 115.974 49.5772 115.392 49.4121C114.81 49.247 114.218 49.0673 113.617 48.8731C113.016 48.6788 112.424 48.4457 111.842 48.1738C111.26 47.9019 110.741 47.5474 110.285 47.1103C109.829 46.6733 109.461 46.1294 109.18 45.4787C108.908 44.8183 108.772 44.0073 108.772 43.0458C108.772 42.2785 108.922 41.5307 109.223 40.8023C109.534 40.0739 109.98 39.428 110.562 38.8647C111.144 38.3014 111.861 37.8498 112.715 37.5099C113.569 37.17 114.548 37 115.654 37C116.896 37 118.04 37.1942 119.088 37.5827C120.135 37.9712 121.028 38.5151 121.765 39.2144L120.79 41.0645Z" fill="#FFFFFF"/>
    <path d="M136.829 50.3445L134.268 43.3372C134.142 43.0264 134.011 42.6573 133.875 42.23C133.739 41.8026 133.604 41.3413 133.468 40.846C133.342 41.3413 133.211 41.8075 133.075 42.2446C132.939 42.6719 132.808 43.0458 132.682 43.3663L130.136 50.3445H136.829ZM143.74 58.2987H140.713C140.374 58.2987 140.097 58.2161 139.884 58.051C139.671 57.8762 139.511 57.6626 139.404 57.41L137.833 53.1124H129.117L127.546 57.41C127.469 57.6334 127.318 57.8374 127.095 58.0219C126.872 58.2064 126.596 58.2987 126.266 58.2987H123.21L131.489 37.2331H135.476L143.74 58.2987Z" fill="#FFFFFF"/>
    <path d="M157.119 58.2987H153.191V37.2331H157.119V58.2987Z" fill="#FFFFFF"/>
    <path d="M180.147 37.2331V58.2987H178.139C177.829 58.2987 177.567 58.2501 177.354 58.153C177.15 58.0462 176.951 57.8714 176.757 57.6286L165.772 43.5848C165.831 44.2258 165.86 44.8183 165.86 45.3621V58.2987H162.412V37.2331H164.463C164.628 37.2331 164.769 37.2428 164.885 37.2622C165.011 37.2719 165.118 37.3011 165.205 37.3496C165.302 37.3885 165.394 37.4516 165.481 37.539C165.569 37.6167 165.666 37.7236 165.772 37.8595L176.801 51.9615C176.772 51.6216 176.748 51.2865 176.728 50.9563C176.709 50.6261 176.699 50.3202 176.699 50.0385V37.2331H180.147Z" fill="#FFFFFF"/>
    <path d="M63 27H51.6855L35.999 11.3135L8 39.3135V91H28V99H0V36L36 0L63 27Z" fill="#1E88E5"/>
</svg>
